<?xml version="1.0" encoding="utf-8" ?>
<svg xmlns="http://www.w3.org/2000/svg" xmlns:xlink="http://www.w3.org/1999/xlink" width="610" height="867">
	<path d="M425.862 104.056C426.48 93.1204 426.358 81.4713 425.925 70.5288C425.302 54.7502 417.67 42.8698 403.5 35.6477C398.362 33.029 392.354 30.7408 388.122 26.7366C385.431 24.1906 383.453 20.6981 383.364 16.9285C383.28 13.39 384.769 9.31634 387.271 6.78324C389.502 4.52552 392.628 3.41575 395.774 3.45429C403.586 3.55001 423.037 15.2678 429.767 20.1124C433.284 22.6439 436.501 25.4915 439.559 28.5573C454.15 43.1823 455.061 59.7813 455.056 79.1687L455.024 103.637C458.646 104.644 461.851 105.948 464.579 108.628C468.596 112.574 468.988 117.354 469.04 122.726L469.048 153.539C469.039 160.454 469.854 168.698 468.224 175.407C467.558 178.145 465.916 180.647 463.941 182.626C462.07 184.501 459.994 185.815 457.405 186.445C450.541 188.115 423.24 187.113 414.762 187.136C414.746 189.794 414.643 192.478 414.345 195.121C413.155 205.686 408.331 215.308 399.9 221.925C389.135 230.374 378.146 231.047 365.06 231.051C360.81 231.053 356.441 231.279 352.22 230.775L352.197 255.804C364.56 255.85 391.515 254.543 402.148 257.113C407.492 258.404 412.15 260.804 416.524 264.097C417.427 264.922 418.312 265.767 419.179 266.63C423.321 270.836 426.713 276.41 428 282.212C430.11 291.726 429.026 305.671 429.028 315.678L428.998 372.164C428.947 383.657 426.77 393.892 418.223 402.234C408 412.21 395.528 412.176 382.239 412.058C380.286 421.232 381.025 433.936 374.179 441.184C370.967 444.585 366.612 445.199 362.136 445.283C337.232 445.754 312.208 445.228 287.292 445.252L259.482 445.291C254.292 445.3 248.887 445.617 243.734 445.113C240.893 444.836 237.306 444.228 235.189 442.154C228.809 435.903 227.116 420.725 227.042 412.12C222.57 412.124 218.084 412.172 213.614 412.024C204.004 411.705 195.545 407.969 188.99 400.893C184.785 396.417 181.866 390.89 180.541 384.893C178.552 375.554 179.548 355.611 179.535 345.011C179.513 327.404 178.941 309.613 179.644 292.032C180.076 281.21 183.45 271.997 191.654 264.553C195.9 260.7 200.998 258.259 206.565 256.959C214.797 255.037 224.047 255.753 232.452 255.774C240.119 255.792 247.835 255.641 255.493 256.028C255.139 247.844 255.169 239.215 255.569 231.035C248.721 230.832 241.847 231.121 234.994 231.004C223.449 230.805 213.109 226.937 205.034 218.488C196.858 209.932 193.791 198.764 194.041 187.182C184.687 186.905 154.862 188.795 148.275 185.11C144.332 182.904 141.698 178.915 140.612 174.591C139.415 169.825 139.652 125.586 140.221 118.756C140.436 116.161 140.727 113.581 142.087 111.313C144.993 106.469 148.846 105.172 154.034 103.812C154.187 95.1867 154.015 86.5304 154.009 77.9021C153.998 62.6946 154.631 49.7086 163.197 36.4735C171.23 24.0631 182.766 17.8323 195.271 10.8587C200.405 7.9957 205.616 4.69629 211.429 3.46577C211.522 3.45812 211.615 3.44824 211.709 3.44283C215.351 3.23201 218.535 4.04061 221.28 6.53605C223.967 8.97738 226.236 12.6331 226.273 16.3514C226.382 27.3163 211.526 32.005 203.803 36.3537C200.071 38.455 196.532 40.9271 193.488 43.9536C182.532 54.8491 182.874 67.3389 182.886 81.6445L182.927 103.902C186.525 104.119 190.17 104.068 193.776 104.115C194.674 96.5637 196.717 89.7286 201.121 83.4338C207.219 74.718 216.19 69.3053 226.626 67.5105C234.807 66.1037 244.288 66.9583 252.602 66.9587L302.111 66.9794L353.051 66.9536C361.779 66.9516 371.196 66.2588 379.851 67.3016C386.272 68.0751 393.132 70.9254 398.347 74.7169C408.286 81.9427 412.639 91.9259 414.538 103.717C418.318 104.077 422.069 104.066 425.862 104.056ZM367.456 375.063C373.228 373.795 377.781 371.387 381.01 366.26C382.64 363.671 383.319 361 383.7 357.987C384.587 350.988 384.713 313.568 383.263 307.559C382.14 302.903 379.514 298.936 375.353 296.46C372.693 294.877 369.685 294.163 366.621 293.919C360.515 293.432 354.15 293.779 348.02 293.778L312.09 293.791L267.828 293.8C258.98 293.796 250.057 293.541 241.222 293.996C235.862 294.931 231.485 297.163 228.336 301.733C226.674 304.146 225.66 306.899 225.235 309.791C224.41 315.395 224.552 355.289 225.403 359.819C226.375 364.994 229.36 369.313 233.748 372.199C235.759 373.522 238.113 374.619 240.522 374.914C246.123 375.601 252.014 375.3 257.655 375.311L285.967 375.332C313.079 375.342 340.363 375.941 367.456 375.063ZM366.359 184.013C371.632 183.332 376.299 181.214 379.65 176.963C381.838 174.188 383.077 170.932 383.661 167.47C385.028 159.373 384.03 146.84 383.992 138.229C383.969 133.104 384.496 127.599 383.822 122.536C383.041 116.664 380.391 111.995 375.661 108.404C373.142 106.491 370.064 105.555 366.946 105.244C360.986 104.649 354.708 105.014 348.707 105.022L316.463 105.04L268.68 105.031C260.13 105.029 251.468 104.741 242.93 105.118C237.362 105.856 232.685 107.979 229.191 112.523C227.111 115.228 225.844 118.349 225.261 121.7C224.454 126.34 224.477 162.048 225.152 167.027C225.87 172.329 228.165 176.782 232.469 180.052C235.016 181.987 238.124 183.343 241.302 183.771C246.157 184.425 251.327 184.103 256.226 184.094L281.847 184.04L366.359 184.013Z"/>
	<path d="M261.623 129.655C269.957 128.153 277.943 133.653 279.511 141.976C281.078 150.298 275.642 158.327 267.333 159.961C258.93 161.614 250.79 156.102 249.205 147.686C247.619 139.269 253.195 131.173 261.623 129.655Z"/>
	<path d="M342.011 129.644C350.387 128.176 358.369 133.775 359.84 142.152C361.312 150.529 355.716 158.513 347.34 159.988C338.96 161.463 330.971 155.864 329.499 147.482C328.026 139.101 333.629 131.113 342.011 129.644Z"/>
	<path d="M200.478 460.249C210.825 459.46 221.557 460.045 231.939 460.062L287.991 460.043L366.718 460.069C379.43 460.072 392.305 459.558 404.995 460.062C407.693 460.151 410.367 460.607 412.943 461.417C419.945 463.685 425.758 468.647 429.097 475.207C432.526 481.941 433.125 489.764 430.763 496.941C427.997 505.312 421.665 511.078 413.974 514.98C415.436 521.589 416.22 528.423 417.314 535.108C420.167 552.533 422.636 570.041 425.655 587.433C428.88 588.701 432.111 589.997 434.966 591.999C441.1 596.3 444.628 603.777 445.828 611.004C447.766 622.67 447.82 638.645 440.523 648.518C439.059 650.499 436.216 653.366 433.712 653.722C433.908 660.92 434.801 668.163 435.405 675.341L438.383 711.29C439.537 724.735 439.737 738.598 441.73 751.921C443.231 753.92 447.065 755.492 449.101 757.224C455.063 762.297 455.565 770.303 456.185 777.545C452.56 778.901 445.007 778.114 440.876 778.108L405.962 778.057C397.865 778.046 389.418 777.501 381.424 778.916C373.964 780.237 367.801 783.431 361.6 787.618C360.091 788.638 358.385 790.346 356.678 790.875C356.485 790.935 356.288 790.983 356.093 791.037C358.992 780.539 356.613 767.828 363.814 758.693C365.746 756.242 368.677 755.026 370.653 752.717C370.707 752.654 370.758 752.588 370.811 752.523C371.426 748.367 371.537 743.963 371.876 739.763C372.647 730.208 373.352 720.648 373.991 711.084C375.335 691.9 377.174 672.684 378.124 653.482C375.756 652.862 373.077 649.899 371.761 647.873C365.945 638.924 365.611 617.513 367.978 607.198C369.988 598.434 375.62 592.469 383.084 587.863C381.76 582.565 381.226 576.855 380.406 571.446C378.927 561.535 377.396 551.632 375.814 541.737C374.555 535.517 373.644 529.088 372.8 522.795C365.809 519.709 361.25 517.29 357.012 510.702C350.419 511.077 343.641 510.711 337.03 510.705L293.989 510.65L266.798 510.719C261.984 510.749 256.847 511.172 252.071 510.631C248.382 517.46 243.797 520.401 236.507 522.716C234.452 530.861 233.394 539.259 232.104 547.551C230.011 561.014 228.014 574.528 225.502 587.918C225.918 588.132 226.329 588.356 226.734 588.59C233.263 592.322 238.86 598.672 240.789 606.041C243.533 616.52 243.251 638.021 237.676 647.357C236.281 649.694 233.627 652.593 230.919 653.258C231.017 664.079 232.183 675.106 233.02 685.9L235.873 724.243C236.643 733.398 237.945 742.881 237.934 752.038C240.173 755.309 244.316 756.802 246.535 760.476C252.655 770.607 249.556 783.241 253.398 791.551C251.404 791.113 244.961 785.676 242.568 784.198C239.517 782.313 236.292 780.823 232.834 779.859C222.15 776.881 209.686 778.058 198.65 778.076L162.876 778.122C160.242 778.123 155.295 778.729 153.064 777.345C154.057 769.775 154.696 761.21 161.455 756.349C163.406 754.945 166.009 753.834 167.557 751.992C167.612 751.926 167.664 751.856 167.718 751.788C169.228 748.021 169.587 732.746 169.972 727.749C171.87 703.131 173.19 678.339 175.629 653.778C175.131 653.807 174.897 653.729 174.441 653.515C169.312 651.11 165.914 645.834 164.087 640.646C160.644 630.869 160.755 611.887 165.219 602.593C169.16 594.387 175.103 590.376 183.412 587.476C185.462 579.006 186.361 569.939 187.743 561.32C190.275 545.812 192.724 530.291 195.09 514.757C193.464 513.954 191.873 513.05 190.318 512.115C184.029 508.33 179.329 501.666 177.642 494.547C175.867 487.149 177.193 479.346 181.311 472.949C185.975 465.57 192.197 462.179 200.478 460.249Z"/>
	<path d="M490.578 244.44C507.926 243.854 524.166 249.469 537.136 261.066C549.584 272.197 556.665 288.684 557.53 305.226C558.32 320.319 553.49 335.909 543.299 347.168C547.446 361.962 550.699 377.068 554.098 392.049C555.893 399.965 558.242 407.948 559.466 415.965C550.322 412.842 540.003 412.523 530.519 413.922C523.936 414.487 517.699 416.869 511.596 419.231C506.661 403.305 503.627 386.348 499.968 370.069C493.27 369.956 487.108 369.588 480.553 368.08C469.852 365.619 456.98 359.234 451.052 349.777C450.37 334.433 450.904 318.859 450.871 303.491C450.842 289.571 450.245 275.734 450.007 261.831C460.453 249.89 475.427 245.924 490.578 244.44ZM498.859 333.842C513.863 332.013 524.562 318.392 522.786 303.381C521.011 288.37 507.43 277.622 492.413 279.343C477.32 281.074 466.505 294.74 468.29 309.828C470.074 324.916 483.779 335.681 498.859 333.842Z"/>
	<path d="M109.563 244.436C112.144 244.336 114.694 244.29 117.275 244.451C132.134 245.382 148.042 250.952 158.066 262.398C158.069 262.481 158.073 262.564 158.075 262.648C158.527 280.766 158.011 299.05 158.01 317.183C158.01 324.206 158.901 341.692 157.528 347.883C157 350.264 154.967 352.683 153.288 354.397C141.885 366.039 125.066 369.91 109.354 370.102C106.141 381.07 103.92 392.697 101.432 403.872C100.292 408.992 99.4425 414.407 97.645 419.325L87.5211 415.82C76.5557 412.772 61.1775 411.379 50.51 416.081C52.0979 407.29 54.2846 398.561 56.2691 389.849L66.0433 346.812C58.1491 338.18 53.675 327.385 52.2894 315.805C50.192 298.277 54.705 281.248 65.7305 267.447C76.9462 253.408 91.9846 246.44 109.563 244.436ZM117.038 333.906C132.124 332.091 142.874 318.378 141.036 303.294C139.197 288.211 125.467 277.482 110.387 279.345C95.3419 281.204 84.6434 294.896 86.4778 309.945C88.3123 324.995 101.987 335.716 117.038 333.906Z"/>
	<path d="M59.0781 434.07C68.5782 433.755 77.3051 434.28 86.3656 437.39C102.777 442.923 116.265 454.841 123.777 470.447C130.923 485.226 131.597 503.278 126.152 518.72C122.16 530.04 113.336 543.396 102.238 548.641C97.5119 550.874 93.0936 551.222 88.1547 549.423C83.449 547.709 79.3341 544.213 77.2376 539.621C76.0779 537.013 75.5669 534.163 75.748 531.314C76.3557 520.33 86.8061 516.7 90.3904 507.176C92.7972 500.684 92.4648 493.493 89.4694 487.25C86.1001 480.079 80.2309 475.406 72.8681 472.801C69.0363 471.967 65.0834 471.672 61.1952 472.293C54.2718 473.399 47.7475 477.59 43.6548 483.26C40.7832 487.249 39.1289 491.985 38.8918 496.894C37.9902 515.253 53.1092 516.462 55.1136 530.122C55.805 534.833 54.3879 539.133 51.5497 542.893C48.5012 546.933 43.9169 549.851 38.869 550.534C33.1376 551.309 27.5846 549.34 23.0463 545.899C11.6099 537.227 4.57633 521.347 2.60244 507.395C0.0106962 490.163 4.42603 472.611 14.8627 458.657C25.975 443.955 41.0508 436.536 59.0781 434.07Z"/>
	<path d="M537.008 434.073C544.893 433.787 552.188 434.005 559.862 436.043C576.585 440.48 590.814 451.473 599.33 466.534C607.66 481.013 609.079 499.139 604.73 515.138C601.366 527.511 593.304 541.68 581.883 548.094C577.248 550.697 571.864 551.217 566.774 549.692C562.298 548.351 558.403 544.893 556.214 540.806C554.816 538.198 554.081 535.287 554.072 532.329C553.958 520.269 565.811 516.99 569.113 505.893C571.138 499.191 570.38 491.956 567.009 485.819C563.292 479.171 557.56 474.757 550.29 472.675C546.501 471.9 542.527 471.729 538.708 472.381C531.829 473.554 525.972 477.376 521.978 483.059C515.467 492.324 515.169 504.355 522.278 513.421C526.7 519.059 532.321 522.245 533.525 529.923C534.24 534.48 532.978 538.92 530.269 542.617C527.139 546.804 522.472 549.572 517.297 550.309C511.744 551.105 506.31 549.522 501.862 546.159C489.912 537.124 482.389 521.388 480.466 506.759C478.159 489.206 482.147 472.23 492.978 458.143C503.968 443.85 519.44 436.413 537.008 434.073Z"/>
	<path d="M385.51 792.554C388.872 793.881 397.425 793.04 401.454 793.038L448.605 793.005C456.32 792.998 464.573 792.347 472.208 793.206C475.429 793.569 478.524 794.405 481.377 795.968C486.828 798.956 489.708 803.012 491.357 808.959C493.322 816.048 493.892 823.885 494.902 831.171C495.787 837.557 497.3 844.516 497.211 850.957C497.175 853.564 496.678 856.687 495.29 858.945C493.766 861.422 490.657 863.079 487.894 863.696C485.075 864.326 471.838 864.718 469.674 863.346C468.834 863.871 468.076 864.026 467.103 864.064C459.783 864.351 452.369 864.109 445.035 864.107L402.838 864.111C395.691 864.115 372.596 864.986 367.185 863.685C364.121 862.949 360.912 860.995 359.28 858.238C358.07 856.196 357.691 853.756 357.681 851.417C357.656 845.806 359.137 839.821 359.863 834.242C360.884 826.397 361.002 817.698 363.266 810.114C365.267 803.411 370.774 796.603 377.75 794.694C379.923 794.099 383.112 793.955 385.015 792.856C385.182 792.76 385.345 792.655 385.51 792.554Z"/>
	<path d="M138.369 792.516C141.229 793.913 149.971 793.027 153.317 793.003L199.098 792.964C207.585 792.961 216.729 792.289 225.139 793.356C228.583 793.793 231.827 794.779 234.844 796.516C240.506 799.763 244.632 805.142 246.298 811.453C248.049 817.947 248.239 825.08 249.093 831.751C249.953 838.466 251.7 845.787 251.541 852.535C251.515 854.464 250.98 856.352 249.991 858.009C248.199 861.001 245.177 862.916 241.831 863.726C238.671 864.49 227.596 864.945 224.996 863.358C224.04 863.942 223.283 864.032 222.191 864.074C214.506 864.364 206.722 864.11 199.028 864.106L154.842 864.112C148.031 864.114 126.066 864.923 120.784 863.769C117.807 863.118 115.196 861.347 113.651 858.697C112.275 856.336 111.833 853.642 111.809 850.943C111.739 843.21 113.825 835.107 114.939 827.46C115.754 821.868 115.983 816.027 117.398 810.553C119.008 804.322 123.758 796.842 130.278 794.842C132.745 794.084 135.972 793.983 138.164 792.65C138.234 792.607 138.301 792.561 138.369 792.516Z"/>
</svg>
